<?xml version="1.0" encoding="UTF-8" standalone="no"?>
<!-- Created with Inkscape (http://www.inkscape.org/) -->

<svg
   width="50.734497mm"
   height="50.470295mm"
   viewBox="0 0 50.734497 50.470295"
   version="1.1"
   id="svg1"
   xml:space="preserve"
   xmlns="http://www.w3.org/2000/svg"
   xmlns:svg="http://www.w3.org/2000/svg"><defs
     id="defs1" /><g
     id="layer1"
     transform="translate(-59.939412,-76.97433)"><g
       id="g9"
       transform="matrix(-0.89867932,0.43860629,0.43860629,0.89867932,40.27254,-135.61433)"
       style="fill:#ffffff;fill-opacity:1"><g
         id="g10"
         style="fill:#ffffff;fill-opacity:1"><circle
           style="fill:#ffffff;fill-opacity:1;stroke:#000000;stroke-width:1.5875;stroke-dasharray:none;stroke-opacity:1"
           id="path1"
           cx="85.174561"
           cy="102.20948"
           r="24.441397"
           transform="matrix(-0.89867933,0.4386063,0.4386063,0.89867933,95.673397,104.21)" /><path
           id="path7"
           style="fill:#ffffff;fill-opacity:1;stroke:#000000;stroke-width:1.56104;stroke-linecap:round;stroke-linejoin:round;stroke-dasharray:none;stroke-opacity:1"
           d="m 66.627493,233.39686 c 0,0 6.391103,-4.09384 6.665836,-8.76434 0.216021,-3.67238 -3.826685,-2.22195 -3.826685,-2.22195 l -2.036781,1.29614 c -4.92977,-1.46242 -10.232184,3.80095 -11.44919,8.45569 -1.75904,7.37563 -6.233792,8.85692 -6.233792,8.85692 l -8.269476,2.69751 m 31.829806,-19.00935 c 0,0 0.144167,1.14568 -0.990554,13.97676 -1.134722,12.83108 -8.130021,19.23833 -8.435525,19.36926 0,0 -8.328516,-0.76721 -11.276009,-3.04752" /><circle
           style="fill:#000000;fill-opacity:1;stroke:none;stroke-width:0;stroke-linecap:round;stroke-linejoin:round;stroke-dasharray:none;stroke-opacity:1"
           id="path8"
           cx="63.002594"
           cy="232.31674"
           r="0.82520938" /></g></g></g></svg>
